<?xml version="1.0" standalone="no"?>
<!DOCTYPE svg PUBLIC "-//W3C//DTD SVG 20010904//EN"
 "http://www.w3.org/TR/2001/REC-SVG-20010904/DTD/svg10.dtd">
<svg version="1.0" xmlns="http://www.w3.org/2000/svg"
 width="260.000000pt" height="260.000000pt" viewBox="0 0 260.000000 260.000000"
 preserveAspectRatio="xMidYMid meet">
<metadata>
Created by potrace 1.11, written by Peter Selinger 2001-2013
</metadata>
<g transform="translate(0.000000,260.000000) scale(0.100000,-0.100000)"
fill="#000000" stroke="none">
<path d="M0 1300 l0 -1300 1300 0 1300 0 0 1300 0 1300 -1300 0 -1300 0 0
-1300z m1507 1085 c443 -84 794 -434 877 -875 20 -105 21 -304 1 -407 -84
-443 -434 -794 -875 -877 -105 -20 -304 -21 -407 -1 -443 84 -794 434 -877
875 -20 105 -21 304 -1 407 83 437 419 780 855 873 109 24 317 26 427 5z"/>
<path d="M1193 2350 c-83 -9 -204 -38 -270 -65 -34 -14 -35 -16 -21 -37 8 -13
54 -92 102 -175 48 -84 91 -153 95 -153 4 0 52 77 106 171 53 94 101 167 105
162 14 -15 820 -1415 820 -1424 0 -5 -90 -10 -200 -11 l-200 -3 96 -165 c52
-91 99 -171 103 -179 11 -18 183 152 241 238 57 86 124 230 149 322 47 169 45
393 -3 561 -33 112 -68 187 -130 283 -217 333 -597 514 -993 475z"/>
<path d="M578 2058 c-52 -51 -114 -122 -138 -157 -57 -86 -124 -230 -149 -322
-61 -221 -40 -491 54 -704 69 -155 225 -341 364 -435 85 -57 229 -124 322
-149 171 -47 393 -45 565 4 131 39 130 37 99 88 -14 23 -76 131 -137 239
l-113 197 -482 1 c-266 0 -483 4 -483 8 0 5 106 192 235 415 129 224 235 412
235 418 0 10 -185 337 -261 462 l-17 29 -94 -94z"/>
<path d="M1271 1726 c-18 -31 -31 -59 -28 -63 2 -5 79 -140 172 -300 l168
-293 67 0 68 0 -200 348 c-110 191 -204 351 -208 355 -4 5 -22 -16 -39 -47z"/>
<path d="M997 1251 c-53 -92 -97 -171 -97 -174 0 -4 90 -7 199 -7 l200 0 -91
158 c-50 86 -96 165 -103 174 -10 15 -26 -8 -108 -151z"/>
</g>
</svg>
