<?xml version="1.0" encoding="UTF-8" standalone="no"?>
<svg
   xmlns:dc="http://purl.org/dc/elements/1.1/"
   xmlns:cc="http://creativecommons.org/ns#"
   xmlns:rdf="http://www.w3.org/1999/02/22-rdf-syntax-ns#"
   xmlns:svg="http://www.w3.org/2000/svg"
   xmlns="http://www.w3.org/2000/svg"
   xmlns:sodipodi="http://sodipodi.sourceforge.net/DTD/sodipodi-0.dtd"
   xmlns:inkscape="http://www.inkscape.org/namespaces/inkscape"
   width="40"
   height="40"
   viewBox="0 0 40 40"
   version="1.1"
   id="svg4586"
   sodipodi:docname="info_b.svg"
   style="fill:none"
   inkscape:version="0.92.3 (2405546, 2018-03-11)">
  <metadata
     id="metadata4592">
    <rdf:RDF>
      <cc:Work
         rdf:about="">
        <dc:format>image/svg+xml</dc:format>
        <dc:type
           rdf:resource="http://purl.org/dc/dcmitype/StillImage" />
        <dc:title></dc:title>
      </cc:Work>
    </rdf:RDF>
  </metadata>
  <defs
     id="defs4590" />
  <sodipodi:namedview
     pagecolor="#ffffff"
     bordercolor="#666666"
     borderopacity="1"
     objecttolerance="10"
     gridtolerance="10"
     guidetolerance="10"
     inkscape:pageopacity="0"
     inkscape:pageshadow="2"
     inkscape:window-width="716"
     inkscape:window-height="480"
     id="namedview4588"
     showgrid="false"
     fit-margin-top="0"
     fit-margin-left="0"
     fit-margin-right="0"
     fit-margin-bottom="0"
     inkscape:zoom="5.9"
     inkscape:cx="10"
     inkscape:cy="18.825406"
     inkscape:window-x="0"
     inkscape:window-y="0"
     inkscape:window-maximized="0"
     inkscape:current-layer="svg4586" />
  <path
     d="m 19,15 h 2 v 2 h -2 z"
     id="path4580"
     inkscape:connector-curvature="0"
     style="fill:#657eff;fill-opacity:1" />
  <path
     d="m 19,19 h 2 v 6 h -2 z"
     id="path4582"
     inkscape:connector-curvature="0"
     style="fill:#657eff;fill-opacity:1" />
  <path
     d="m 10,20 c 0,-5.52 4.48,-10 10,-10 5.52,0 10,4.48 10,10 0,5.52 -4.48,10 -10,10 -5.52,0 -10,-4.48 -10,-10 z m 2,0 c 0,4.41 3.59,8 8,8 4.41,0 8,-3.59 8,-8 0,-4.41 -3.59,-8 -8,-8 -4.41,0 -8,3.59 -8,8 z"
     id="path4584"
     inkscape:connector-curvature="0"
     style="clip-rule:evenodd;fill:#657eff;fill-rule:evenodd;fill-opacity:1" />
</svg>
