<?xml version="1.0" encoding="UTF-8" standalone="no"?>
<!-- Created with Inkscape (http://www.inkscape.org/) -->

<svg
   xmlns:dc="http://purl.org/dc/elements/1.1/"
   xmlns:cc="http://creativecommons.org/ns#"
   xmlns:rdf="http://www.w3.org/1999/02/22-rdf-syntax-ns#"
   xmlns:svg="http://www.w3.org/2000/svg"
   xmlns="http://www.w3.org/2000/svg"
   xmlns:sodipodi="http://sodipodi.sourceforge.net/DTD/sodipodi-0.dtd"
   xmlns:inkscape="http://www.inkscape.org/namespaces/inkscape"
   width="10.583333mm"
   height="10.583333mm"
   viewBox="0 0 10.583333 10.583333"
   version="1.1"
   id="svg8"
   inkscape:version="0.92.3 (2405546, 2018-03-11)"
   sodipodi:docname="lock_b.svg">
  <defs
     id="defs2" />
  <sodipodi:namedview
     id="base"
     pagecolor="#ffffff"
     bordercolor="#666666"
     borderopacity="1.0"
     inkscape:pageopacity="0.0"
     inkscape:pageshadow="2"
     inkscape:zoom="11.2"
     inkscape:cx="12.009038"
     inkscape:cy="20.309117"
     inkscape:document-units="mm"
     inkscape:current-layer="layer1"
     showgrid="false"
     fit-margin-top="0"
     fit-margin-left="0"
     fit-margin-right="0"
     fit-margin-bottom="0"
     inkscape:window-width="1366"
     inkscape:window-height="705"
     inkscape:window-x="-8"
     inkscape:window-y="-8"
     inkscape:window-maximized="1" />
  <metadata
     id="metadata5">
    <rdf:RDF>
      <cc:Work
         rdf:about="">
        <dc:format>image/svg+xml</dc:format>
        <dc:type
           rdf:resource="http://purl.org/dc/dcmitype/StillImage" />
        <dc:title></dc:title>
      </cc:Work>
    </rdf:RDF>
  </metadata>
  <g
     inkscape:label="Layer 1"
     inkscape:groupmode="layer"
     id="layer1"
     transform="translate(-61.988095,-145.80952)">
    <g
       style="fill:none"
       id="g844"
       transform="matrix(0.26458333,0,0,0.26458333,61.988095,145.80952)">
      <circle
         id="circle815"
         r="19.5"
         cy="20"
         cx="20"
         style="fill:#657eff;stroke:#ecf1f5;fill-opacity:1" />
      <path
         id="path817"
         d="M 10.75,13.5002 C 12.8757,10.6663 16.2118,8.99902 19.7543,9 c 3.5424,9.8e-4 6.8776,1.6702 9.0017,4.5052"
         inkscape:connector-curvature="0"
         style="stroke:#ffffff;stroke-width:1.5;stroke-linecap:round;stroke-linejoin:round;fill:#657eff;fill-opacity:0.98994976;stroke-opacity:1" />
      <path
         id="path819"
         d="m 28.75,27.0001 c -2.1249,2.8325 -5.4591,4.4994 -9,4.4994 -3.5409,0 -6.8751,-1.6669 -9,-4.4994"
         inkscape:connector-curvature="0"
         style="stroke:#ffffff;stroke-width:1.5;stroke-linecap:round;stroke-linejoin:round;stroke-opacity:0.98492461" />
      <path
         id="path821"
         d="m 12.3422,21.5779 c 0,0.319 -0.0475,0.6019 -0.1425,0.8487 -0.095,0.2408 -0.2291,0.4455 -0.4023,0.614 -0.1677,0.1626 -0.3717,0.286 -0.612,0.3702 -0.2347,0.0843 -0.4974,0.1264 -0.788,0.1264 H 8.67061 c -0.19559,0 -0.35766,-0.0601 -0.48619,-0.1805 C 8.06147,23.2302 8,23.0617 8,22.851 v -5.0654 c 0,-0.2168 0.06147,-0.3823 0.18442,-0.4967 0.12294,-0.1204 0.28222,-0.1805 0.47781,-0.1805 h 1.60947 c 0.218,0 0.4219,0.0391 0.6119,0.1173 0.1956,0.0723 0.3633,0.1776 0.503,0.3161 0.1453,0.1384 0.2571,0.307 0.3353,0.5056 0.0838,0.1926 0.1257,0.4093 0.1257,0.6501 0,0.3251 -0.0642,0.5929 -0.1928,0.8036 -0.1229,0.2107 -0.3185,0.3853 -0.5867,0.5237 v 0.0181 c 0.1732,0.0241 0.3381,0.0813 0.4945,0.1715 0.1565,0.0903 0.2906,0.2047 0.4024,0.3432 0.1174,0.1324 0.2096,0.2859 0.2766,0.4605 0.0671,0.1745 0.1006,0.3611 0.1006,0.5598 z m -1.752,-2.6366 c 0,-0.2107 -0.067,-0.3702 -0.2011,-0.4785 -0.1342,-0.1084 -0.2934,-0.1626 -0.47785,-0.1626 H 9.2574 v 1.3544 h 0.65385 c 0.20675,0 0.37165,-0.0602 0.49455,-0.1806 0.123,-0.1264 0.1844,-0.3039 0.1844,-0.5327 z m 0.4443,2.6185 c 0,-0.2107 -0.0726,-0.3822 -0.2179,-0.5147 -0.1453,-0.1324 -0.3689,-0.1986 -0.6706,-0.1986 H 9.2574 v 1.4989 h 0.9892 c 0.2347,0 0.4247,-0.0662 0.57,-0.1987 0.1453,-0.1384 0.2179,-0.3341 0.2179,-0.5869 z"
         inkscape:connector-curvature="0"
         style="fill:#ffffff;fill-opacity:1" />
      <path
         id="path823"
         d="m 19.1687,23.0135 c 0,0.1927 -0.0615,0.3462 -0.1844,0.4605 -0.1174,0.1144 -0.2682,0.1716 -0.4527,0.1716 -0.2123,0 -0.3856,-0.0993 -0.5197,-0.298 l -1.4167,-2.1128 -1.4082,2.1128 c -0.1342,0.1987 -0.3074,0.298 -0.5198,0.298 -0.1844,0 -0.3381,-0.0572 -0.461,-0.1716 -0.1174,-0.1143 -0.1761,-0.2678 -0.1761,-0.4605 0,-0.0963 0.014,-0.1836 0.042,-0.2618 0.0335,-0.0843 0.067,-0.1505 0.1005,-0.1987 l 1.6933,-2.4559 -1.3915,-2.0407 c -0.0894,-0.1204 -0.1341,-0.2528 -0.1341,-0.3973 0,-0.1986 0.0615,-0.3581 0.1844,-0.4785 C 14.6477,17.0602 14.7986,17 14.9774,17 c 0.1062,0 0.2068,0.0331 0.3018,0.0993 0.1006,0.0662 0.1816,0.1445 0.2431,0.2348 l 1.0729,1.6433 1.073,-1.6433 c 0.0615,-0.0903 0.1397,-0.1686 0.2347,-0.2348 C 18.0035,17.0331 18.1069,17 18.2131,17 c 0.1788,0 0.3297,0.0602 0.4527,0.1806 0.1229,0.1204 0.1844,0.2799 0.1844,0.4785 0,0.1445 -0.0447,0.2769 -0.1341,0.3973 l -1.3916,2.0407 1.7017,2.4559 c 0.0335,0.0482 0.0643,0.1144 0.0922,0.1987 0.0336,0.0782 0.0503,0.1655 0.0503,0.2618 z"
         inkscape:connector-curvature="0"
         style="fill:#ffffff;fill-opacity:1" />
      <path
         id="path825"
         d="m 25.9109,20.3228 c 0,0.4695 -0.0698,0.9059 -0.2095,1.3093 -0.1397,0.4033 -0.3353,0.7554 -0.5868,1.0564 -0.2515,0.2949 -0.5561,0.5297 -0.9137,0.7043 -0.3521,0.1685 -0.7433,0.2528 -1.1736,0.2528 -0.4303,0 -0.8215,-0.0843 -1.1736,-0.2528 -0.352,-0.1746 -0.6566,-0.4094 -0.9137,-0.7043 -0.2515,-0.301 -0.4471,-0.6531 -0.5868,-1.0564 -0.1397,-0.4034 -0.2095,-0.8398 -0.2095,-1.3093 0,-0.4695 0.0698,-0.9059 0.2095,-1.3093 0.1397,-0.4093 0.3353,-0.7614 0.5868,-1.0564 0.2571,-0.301 0.5617,-0.5357 0.9137,-0.7043 C 22.2058,17.0843 22.597,17 23.0273,17 c 0.4191,0 0.8047,0.0873 1.1568,0.2619 0.3577,0.1745 0.6622,0.4123 0.9137,0.7133 0.2571,0.3009 0.4555,0.6531 0.5952,1.0564 0.1453,0.4033 0.2179,0.8337 0.2179,1.2912 z m -1.3077,0 c 0,-0.2709 -0.0335,-0.5327 -0.1005,-0.7856 -0.0671,-0.2528 -0.1677,-0.4725 -0.3018,-0.6591 -0.1286,-0.1926 -0.2934,-0.3461 -0.4946,-0.4605 -0.1956,-0.1144 -0.4219,-0.1716 -0.679,-0.1716 -0.2627,0 -0.4918,0.0572 -0.6874,0.1716 -0.1956,0.1144 -0.3604,0.2679 -0.4946,0.4605 -0.1285,0.1866 -0.2263,0.4063 -0.2933,0.6591 -0.0671,0.2529 -0.1006,0.5147 -0.1006,0.7856 0,0.2769 0.0307,0.5418 0.0922,0.7946 0.067,0.2468 0.1648,0.4665 0.2934,0.6591 0.1341,0.1866 0.2989,0.3371 0.4945,0.4515 0.1956,0.1144 0.4276,0.1715 0.6958,0.1715 0.2682,0 0.5002,-0.0571 0.6958,-0.1715 0.1956,-0.1144 0.3576,-0.2649 0.4862,-0.4515 0.1341,-0.1926 0.2319,-0.4123 0.2934,-0.6591 0.067,-0.2528 0.1005,-0.5177 0.1005,-0.7946 z"
         inkscape:connector-curvature="0"
         style="fill:#ffffff;fill-opacity:1" />
      <path
         id="path827"
         d="m 33,24.2957 c 0,0.2288 -0.0615,0.4033 -0.1844,0.5237 C 32.6982,24.9398 32.5501,25 32.3713,25 c -0.1788,0 -0.3297,-0.0602 -0.4527,-0.1806 -0.1173,-0.1204 -0.176,-0.2949 -0.176,-0.5237 v -0.7585 h -3.5543 v 0.7585 c 0,0.2288 -0.0614,0.4033 -0.1844,0.5237 C 27.8866,24.9398 27.7385,25 27.5596,25 27.3808,25 27.2299,24.9398 27.107,24.8194 26.9896,24.699 26.9309,24.5245 26.9309,24.2957 v -1.246 c 0,-0.2288 0.0615,-0.4033 0.1845,-0.5237 0.1229,-0.1204 0.271,-0.1806 0.4442,-0.1806 0.0615,0 0.1258,-0.1054 0.1928,-0.3161 0.0727,-0.2167 0.137,-0.4815 0.1928,-0.7945 0.0615,-0.3191 0.1118,-0.6562 0.1509,-1.0113 0.0392,-0.3612 0.0587,-0.6893 0.0587,-0.9842 v -1.4267 c 0,-0.2287 0.0587,-0.4033 0.176,-0.5237 0.123,-0.1204 0.2739,-0.1805 0.4527,-0.1805 h 2.8334 c 0.1788,0 0.3269,0.0601 0.4442,0.1805 0.123,0.1204 0.1845,0.295 0.1845,0.5237 v 4.5328 h 0.1257 c 0.1788,0 0.3269,0.0602 0.4443,0.1806 C 32.9385,22.6464 33,22.8209 33,23.0497 Z m -2.0118,-5.9955 h -1.576 v 0.8488 c 0,0.2709 -0.014,0.5598 -0.0419,0.8668 -0.0224,0.301 -0.0559,0.5989 -0.1006,0.8939 -0.0447,0.295 -0.0978,0.5689 -0.1593,0.8217 -0.0558,0.2468 -0.1173,0.4514 -0.1844,0.614 h 2.0622 z"
         inkscape:connector-curvature="0"
         style="fill:#ffffff;fill-opacity:1" />
    </g>
  </g>
</svg>
