<svg width="40" height="40" viewBox="0 0 40 40" fill="none" xmlns="http://www.w3.org/2000/svg">
<circle cx="20" cy="20" r="19.5" fill="white" stroke="#ECF1F5"/>
<path d="M10.75 13.5002C12.8757 10.6663 16.2118 8.99902 19.7543 9C23.2967 9.00098 26.6319 10.6702 28.756 13.5052" stroke="#657EFF" stroke-width="1.5" stroke-linecap="round" stroke-linejoin="round"/>
<path d="M28.75 27.0001C26.6251 29.8326 23.2909 31.4995 19.75 31.4995C16.2091 31.4995 12.8749 29.8326 10.75 27.0001" stroke="#657EFF" stroke-width="1.5" stroke-linecap="round" stroke-linejoin="round"/>
<path d="M12.3422 21.5779C12.3422 21.8969 12.2947 22.1798 12.1997 22.4266C12.1047 22.6674 11.9706 22.8721 11.7974 23.0406C11.6297 23.2032 11.4257 23.3266 11.1854 23.4108C10.9507 23.4951 10.688 23.5372 10.3974 23.5372H8.67061C8.47502 23.5372 8.31295 23.4771 8.18442 23.3567C8.06147 23.2302 8 23.0617 8 22.851V17.7856C8 17.5688 8.06147 17.4033 8.18442 17.2889C8.30736 17.1685 8.46664 17.1084 8.66223 17.1084H10.2717C10.4897 17.1084 10.6936 17.1475 10.8836 17.2257C11.0792 17.298 11.2469 17.4033 11.3866 17.5418C11.5319 17.6802 11.6437 17.8488 11.7219 18.0474C11.8057 18.24 11.8476 18.4567 11.8476 18.6975C11.8476 19.0226 11.7834 19.2904 11.6548 19.5011C11.5319 19.7118 11.3363 19.8864 11.0681 20.0248V20.0429C11.2413 20.067 11.4062 20.1242 11.5626 20.2144C11.7191 20.3047 11.8532 20.4191 11.965 20.5576C12.0824 20.69 12.1746 20.8435 12.2416 21.0181C12.3087 21.1926 12.3422 21.3792 12.3422 21.5779ZM10.5902 18.9413C10.5902 18.7306 10.5232 18.5711 10.3891 18.4628C10.2549 18.3544 10.0957 18.3002 9.91125 18.3002H9.2574V19.6546H9.91125C10.118 19.6546 10.2829 19.5944 10.4058 19.474C10.5288 19.3476 10.5902 19.1701 10.5902 18.9413ZM11.0345 21.5598C11.0345 21.3491 10.9619 21.1776 10.8166 21.0451C10.6713 20.9127 10.4477 20.8465 10.146 20.8465H9.2574V22.3454H10.2466C10.4813 22.3454 10.6713 22.2792 10.8166 22.1467C10.9619 22.0083 11.0345 21.8126 11.0345 21.5598Z" fill="#657EFF"/>
<path d="M19.1687 23.0135C19.1687 23.2062 19.1072 23.3597 18.9843 23.474C18.8669 23.5884 18.7161 23.6456 18.5316 23.6456C18.3193 23.6456 18.146 23.5463 18.0119 23.3476L16.5952 21.2348L15.187 23.3476C15.0528 23.5463 14.8796 23.6456 14.6672 23.6456C14.4828 23.6456 14.3291 23.5884 14.2062 23.474C14.0888 23.3597 14.0301 23.2062 14.0301 23.0135C14.0301 22.9172 14.0441 22.8299 14.0721 22.7517C14.1056 22.6674 14.1391 22.6012 14.1726 22.553L15.8659 20.0971L14.4744 18.0564C14.385 17.936 14.3403 17.8036 14.3403 17.6591C14.3403 17.4605 14.4018 17.301 14.5247 17.1806C14.6477 17.0602 14.7986 17 14.9774 17C15.0836 17 15.1842 17.0331 15.2792 17.0993C15.3798 17.1655 15.4608 17.2438 15.5223 17.3341L16.5952 18.9774L17.6682 17.3341C17.7297 17.2438 17.8079 17.1655 17.9029 17.0993C18.0035 17.0331 18.1069 17 18.2131 17C18.3919 17 18.5428 17.0602 18.6658 17.1806C18.7887 17.301 18.8502 17.4605 18.8502 17.6591C18.8502 17.8036 18.8055 17.936 18.7161 18.0564L17.3245 20.0971L19.0262 22.553C19.0597 22.6012 19.0905 22.6674 19.1184 22.7517C19.152 22.8299 19.1687 22.9172 19.1687 23.0135Z" fill="#657EFF"/>
<path d="M25.9109 20.3228C25.9109 20.7923 25.8411 21.2287 25.7014 21.6321C25.5617 22.0354 25.3661 22.3875 25.1146 22.6885C24.8631 22.9834 24.5585 23.2182 24.2009 23.3928C23.8488 23.5613 23.4576 23.6456 23.0273 23.6456C22.597 23.6456 22.2058 23.5613 21.8537 23.3928C21.5017 23.2182 21.1971 22.9834 20.94 22.6885C20.6885 22.3875 20.4929 22.0354 20.3532 21.6321C20.2135 21.2287 20.1437 20.7923 20.1437 20.3228C20.1437 19.8533 20.2135 19.4169 20.3532 19.0135C20.4929 18.6042 20.6885 18.2521 20.94 17.9571C21.1971 17.6561 21.5017 17.4214 21.8537 17.2528C22.2058 17.0843 22.597 17 23.0273 17C23.4464 17 23.832 17.0873 24.1841 17.2619C24.5418 17.4364 24.8463 17.6742 25.0978 17.9752C25.3549 18.2761 25.5533 18.6283 25.693 19.0316C25.8383 19.4349 25.9109 19.8653 25.9109 20.3228ZM24.6032 20.3228C24.6032 20.0519 24.5697 19.7901 24.5027 19.5372C24.4356 19.2844 24.335 19.0647 24.2009 18.8781C24.0723 18.6855 23.9075 18.532 23.7063 18.4176C23.5107 18.3032 23.2844 18.246 23.0273 18.246C22.7646 18.246 22.5355 18.3032 22.3399 18.4176C22.1443 18.532 21.9795 18.6855 21.8453 18.8781C21.7168 19.0647 21.619 19.2844 21.552 19.5372C21.4849 19.7901 21.4514 20.0519 21.4514 20.3228C21.4514 20.5997 21.4821 20.8646 21.5436 21.1174C21.6106 21.3642 21.7084 21.5839 21.837 21.7765C21.9711 21.9631 22.1359 22.1136 22.3315 22.228C22.5271 22.3424 22.7591 22.3995 23.0273 22.3995C23.2955 22.3995 23.5275 22.3424 23.7231 22.228C23.9187 22.1136 24.0807 21.9631 24.2093 21.7765C24.3434 21.5839 24.4412 21.3642 24.5027 21.1174C24.5697 20.8646 24.6032 20.5997 24.6032 20.3228Z" fill="#657EFF"/>
<path d="M33 24.2957C33 24.5245 32.9385 24.699 32.8156 24.8194C32.6982 24.9398 32.5501 25 32.3713 25C32.1925 25 32.0416 24.9398 31.9186 24.8194C31.8013 24.699 31.7426 24.5245 31.7426 24.2957V23.5372H28.1883V24.2957C28.1883 24.5245 28.1269 24.699 28.0039 24.8194C27.8866 24.9398 27.7385 25 27.5596 25C27.3808 25 27.2299 24.9398 27.107 24.8194C26.9896 24.699 26.9309 24.5245 26.9309 24.2957V23.0497C26.9309 22.8209 26.9924 22.6464 27.1154 22.526C27.2383 22.4056 27.3864 22.3454 27.5596 22.3454C27.6211 22.3454 27.6854 22.24 27.7524 22.0293C27.8251 21.8126 27.8894 21.5478 27.9452 21.2348C28.0067 20.9157 28.057 20.5786 28.0961 20.2235C28.1353 19.8623 28.1548 19.5342 28.1548 19.2393V17.8126C28.1548 17.5839 28.2135 17.4093 28.3308 17.2889C28.4538 17.1685 28.6047 17.1084 28.7835 17.1084H31.6169C31.7957 17.1084 31.9438 17.1685 32.0611 17.2889C32.1841 17.4093 32.2456 17.5839 32.2456 17.8126V22.3454H32.3713C32.5501 22.3454 32.6982 22.4056 32.8156 22.526C32.9385 22.6464 33 22.8209 33 23.0497V24.2957ZM30.9882 18.3002H29.4122V19.149C29.4122 19.4199 29.3982 19.7088 29.3703 20.0158C29.3479 20.3168 29.3144 20.6147 29.2697 20.9097C29.225 21.2047 29.1719 21.4786 29.1104 21.7314C29.0546 21.9782 28.9931 22.1828 28.926 22.3454H30.9882V18.3002Z" fill="#657EFF"/>
</svg>
