<svg width="40" height="40" viewBox="0 0 40 40" fill="none" xmlns="http://www.w3.org/2000/svg">
<circle cx="20" cy="20" r="19.5" fill="#122750" stroke="white"/>
<path d="M21.8886 5.76042L27.5808 15.6198L27.5846 15.6177L33.2806 25.4835L35.175 28.7646H31.3921H20H8.60804H4.8252L6.7196 25.4835L12.4157 15.6177L12.4194 15.6198L18.1116 5.76042L20 2.48964L21.8886 5.76042ZM23.8078 17.7966L20 11.2017L16.1926 17.7966V17.805L12.3909 24.3897H20H27.6093L23.8078 17.805V17.7966Z" fill="#FF4141"/>
<path d="M11.9481 1.68935L31.8299 36.1254C30.6607 36.9845 29.3949 37.7192 28.0518 38.311L8.17023 3.87496C9.33929 3.01597 10.6049 2.28098 11.9481 1.68935Z" fill="white"/>
</svg>
