<svg width="40" height="40" viewBox="0 0 40 40" fill="none" xmlns="http://www.w3.org/2000/svg">
<path fill-rule="evenodd" clip-rule="evenodd" d="M27.2292 20C27.2292 20.34 27.1992 20.66 27.1594 20.98L29.2692 22.63C29.4592 22.78 29.5092 23.05 29.3894 23.27L27.3894 26.73C27.2993 26.89 27.1294 26.98 26.9592 26.98C26.8994 26.98 26.8393 26.97 26.7793 26.95L24.2893 25.95C23.7692 26.34 23.2092 26.68 22.5993 26.93L22.2192 29.58C22.1894 29.82 21.9792 30 21.7292 30H17.7292C17.4792 30 17.2692 29.82 17.2392 29.58L16.8593 26.93C16.2492 26.68 15.6894 26.35 15.1694 25.95L12.6794 26.95C12.6293 26.97 12.5693 26.98 12.5092 26.98C12.3293 26.98 12.1594 26.89 12.0693 26.73L10.0693 23.27C9.94917 23.05 9.99922 22.78 10.1894 22.63L12.2993 20.98C12.2592 20.66 12.2292 20.33 12.2292 20C12.2292 19.67 12.2592 19.34 12.2993 19.02L10.1894 17.37C9.99922 17.22 9.93941 16.95 10.0693 16.73L12.0693 13.27C12.1594 13.11 12.3293 13.02 12.4992 13.02C12.5593 13.02 12.6193 13.03 12.6794 13.05L15.1694 14.05C15.6894 13.66 16.2492 13.32 16.8593 13.07L17.2392 10.42C17.2692 10.18 17.4792 10 17.7292 10H21.7292C21.9792 10 22.1894 10.18 22.2192 10.42L22.5993 13.07C23.2092 13.32 23.7692 13.65 24.2893 14.05L26.7793 13.05C26.8293 13.03 26.8894 13.02 26.9492 13.02C27.1294 13.02 27.2993 13.11 27.3894 13.27L29.3894 16.73C29.5092 16.95 29.4592 17.22 29.2692 17.37L27.1594 19.02C27.1992 19.34 27.2292 19.66 27.2292 20ZM25.2292 20C25.2292 19.79 25.2192 19.58 25.1792 19.27L25.0393 18.14L25.9292 17.44L26.9992 16.59L26.2993 15.38L25.0293 15.89L23.9692 16.32L23.0593 15.62C22.6591 15.32 22.2592 15.09 21.8291 14.91L20.7692 14.48L20.6091 13.35L20.4191 12H19.0293L18.8291 13.35L18.6691 14.48L17.6091 14.91C17.1992 15.08 16.7893 15.32 16.3591 15.64L15.4592 16.32L14.4191 15.9L13.1491 15.39L12.4492 16.6L13.5293 17.44L14.4191 18.14L14.2793 19.27C14.2492 19.57 14.2292 19.8 14.2292 20C14.2292 20.2 14.2492 20.43 14.2793 20.74L14.4191 21.87L13.5293 22.57L12.4492 23.41L13.1491 24.62L14.4191 24.11L15.4792 23.68L16.3891 24.38C16.7893 24.68 17.1892 24.91 17.6191 25.09L18.6792 25.52L18.8391 26.65L19.0293 28H20.4292L20.6291 26.65L20.7893 25.52L21.8491 25.09C22.2592 24.92 22.6691 24.68 23.0991 24.36L23.9992 23.68L25.0393 24.1L26.3093 24.61L27.0092 23.4L25.9292 22.56L25.0393 21.86L25.1792 20.73C25.2092 20.43 25.2292 20.21 25.2292 20ZM19.7292 16C17.5192 16 15.7292 17.79 15.7292 20C15.7292 22.21 17.5192 24 19.7292 24C21.9392 24 23.7292 22.21 23.7292 20C23.7292 17.79 21.9392 16 19.7292 16ZM17.7292 20C17.7292 21.1 18.6291 22 19.7292 22C20.8293 22 21.7292 21.1 21.7292 20C21.7292 18.9 20.8293 18 19.7292 18C18.6291 18 17.7292 18.9 17.7292 20Z" fill="white"/>
</svg>
