<svg width="40" height="40" viewBox="0 0 40 40" fill="none" xmlns="http://www.w3.org/2000/svg">
<circle cx="20" cy="20" r="20" fill="white"/>
<path d="M10.75 13.5002C12.8757 10.6663 16.2118 8.99902 19.7543 9C23.2967 9.00098 26.6319 10.6702 28.756 13.5052" stroke="#657EFF" stroke-width="1.5" stroke-linecap="round" stroke-linejoin="round"/>
<path d="M28.75 27.0001C26.6251 29.8326 23.2909 31.4995 19.75 31.4995C16.2091 31.4995 12.8749 29.8326 10.75 27.0001" stroke="#657EFF" stroke-width="1.5" stroke-linecap="round" stroke-linejoin="round"/>
<path d="M8.34222 21.5779C8.34222 21.8969 8.29472 22.1798 8.19972 22.4266C8.10472 22.6674 7.97059 22.8721 7.79735 23.0406C7.6297 23.2032 7.42572 23.3266 7.18542 23.4108C6.9507 23.4951 6.68804 23.5372 6.39744 23.5372H4.67061C4.47502 23.5372 4.31295 23.477 4.18442 23.3567C4.06147 23.2302 4 23.0617 4 22.851V17.7856C4 17.5688 4.06147 17.4033 4.18442 17.2889C4.30736 17.1685 4.46664 17.1084 4.66223 17.1084H6.2717C6.48965 17.1084 6.69363 17.1475 6.88364 17.2257C7.07924 17.298 7.24689 17.4033 7.3866 17.5418C7.5319 17.6802 7.64367 17.8488 7.72191 18.0474C7.80573 18.24 7.84765 18.4567 7.84765 18.6975C7.84765 19.0226 7.78338 19.2904 7.65485 19.5011C7.5319 19.7118 7.3363 19.8864 7.06806 20.0248V20.0429C7.2413 20.067 7.40616 20.1242 7.56264 20.2144C7.71911 20.3047 7.85324 20.4191 7.965 20.5576C8.08236 20.69 8.17457 20.8435 8.24163 21.0181C8.30869 21.1926 8.34222 21.3792 8.34222 21.5779ZM6.59025 18.9413C6.59025 18.7306 6.52318 18.5711 6.38906 18.4628C6.25494 18.3544 6.09567 18.3002 5.91125 18.3002H5.2574V19.6546H5.91125C6.11802 19.6546 6.28288 19.5944 6.40583 19.474C6.52877 19.3476 6.59025 19.1701 6.59025 18.9413ZM7.03453 21.5598C7.03453 21.3491 6.96188 21.1776 6.81658 21.0451C6.67128 20.9127 6.44774 20.8465 6.14596 20.8465H5.2574V22.3454H6.24656C6.48127 22.3454 6.67128 22.2792 6.81658 22.1467C6.96188 22.0083 7.03453 21.8126 7.03453 21.5598Z" fill="#657EFF"/>
<path d="M15.813 22.9413C15.813 23.1701 15.7515 23.3446 15.6286 23.465C15.5112 23.5854 15.3631 23.6456 15.1843 23.6456C15.0055 23.6456 14.8546 23.5854 14.7317 23.465C14.6143 23.3446 14.5556 23.1701 14.5556 22.9413V17.7043C14.5556 17.4755 14.6143 17.301 14.7317 17.1806C14.8546 17.0602 15.0055 17 15.1843 17C15.3631 17 15.5112 17.0602 15.6286 17.1806C15.7515 17.301 15.813 17.4755 15.813 17.7043V22.9413ZM13.8682 21.5327C13.8682 21.8518 13.8207 22.1347 13.7257 22.3815C13.6307 22.6283 13.4966 22.839 13.3234 23.0135C13.1557 23.1821 12.9517 23.3115 12.7114 23.4018C12.4767 23.4921 12.2141 23.5372 11.9235 23.5372H10.3224C10.1268 23.5372 9.96471 23.477 9.83617 23.3567C9.71323 23.2302 9.65175 23.0617 9.65175 22.851V17.7043C9.65175 17.4755 9.71043 17.301 9.82779 17.1806C9.95074 17.0602 10.1016 17 10.2805 17C10.4593 17 10.6074 17.0602 10.7247 17.1806C10.8477 17.301 10.9092 17.4755 10.9092 17.7043V19.5643H11.7726C12.0743 19.5643 12.3538 19.6035 12.6108 19.6817C12.8679 19.76 13.0886 19.8804 13.2731 20.0429C13.4631 20.2054 13.6084 20.4101 13.709 20.6569C13.8151 20.9037 13.8682 21.1956 13.8682 21.5327ZM12.5605 21.5147C12.5605 21.304 12.4879 21.1264 12.3426 20.9819C12.1973 20.8315 11.9738 20.7562 11.672 20.7562H10.9092V22.3454H11.7726C12.0073 22.3454 12.1973 22.2701 12.3426 22.1196C12.4879 21.9692 12.5605 21.7675 12.5605 21.5147Z" fill="#657EFF"/>
<path d="M22.1687 23.0135C22.1687 23.2062 22.1072 23.3597 21.9843 23.474C21.8669 23.5884 21.7161 23.6456 21.5316 23.6456C21.3193 23.6456 21.146 23.5463 21.0119 23.3476L19.5952 21.2348L18.187 23.3476C18.0528 23.5463 17.8796 23.6456 17.6672 23.6456C17.4828 23.6456 17.3291 23.5884 17.2062 23.474C17.0888 23.3597 17.0301 23.2062 17.0301 23.0135C17.0301 22.9172 17.0441 22.8299 17.0721 22.7517C17.1056 22.6674 17.1391 22.6012 17.1726 22.553L18.8659 20.0971L17.4744 18.0564C17.385 17.936 17.3403 17.8036 17.3403 17.6591C17.3403 17.4605 17.4018 17.301 17.5247 17.1806C17.6477 17.0602 17.7986 17 17.9774 17C18.0836 17 18.1842 17.0331 18.2792 17.0993C18.3798 17.1655 18.4608 17.2438 18.5223 17.3341L19.5952 18.9774L20.6682 17.3341C20.7297 17.2438 20.8079 17.1655 20.9029 17.0993C21.0035 17.0331 21.1069 17 21.2131 17C21.3919 17 21.5428 17.0602 21.6658 17.1806C21.7887 17.301 21.8502 17.4605 21.8502 17.6591C21.8502 17.8036 21.8055 17.936 21.7161 18.0564L20.3245 20.0971L22.0262 22.553C22.0597 22.6012 22.0905 22.6674 22.1184 22.7517C22.152 22.8299 22.1687 22.9172 22.1687 23.0135Z" fill="#657EFF"/>
<path d="M28.9109 20.3228C28.9109 20.7923 28.8411 21.2287 28.7014 21.6321C28.5617 22.0354 28.3661 22.3875 28.1146 22.6885C27.8631 22.9834 27.5585 23.2182 27.2009 23.3928C26.8488 23.5613 26.4576 23.6456 26.0273 23.6456C25.597 23.6456 25.2058 23.5613 24.8537 23.3928C24.5017 23.2182 24.1971 22.9834 23.94 22.6885C23.6885 22.3875 23.4929 22.0354 23.3532 21.6321C23.2135 21.2287 23.1437 20.7923 23.1437 20.3228C23.1437 19.8533 23.2135 19.4169 23.3532 19.0135C23.4929 18.6042 23.6885 18.2521 23.94 17.9571C24.1971 17.6561 24.5017 17.4214 24.8537 17.2528C25.2058 17.0843 25.597 17 26.0273 17C26.4464 17 26.832 17.0873 27.1841 17.2619C27.5418 17.4364 27.8463 17.6742 28.0978 17.9752C28.3549 18.2761 28.5533 18.6283 28.693 19.0316C28.8383 19.4349 28.9109 19.8653 28.9109 20.3228ZM27.6032 20.3228C27.6032 20.0519 27.5697 19.7901 27.5027 19.5372C27.4356 19.2844 27.335 19.0647 27.2009 18.8781C27.0723 18.6855 26.9075 18.532 26.7063 18.4176C26.5107 18.3032 26.2844 18.246 26.0273 18.246C25.7646 18.246 25.5355 18.3032 25.3399 18.4176C25.1443 18.532 24.9795 18.6855 24.8453 18.8781C24.7168 19.0647 24.619 19.2844 24.552 19.5372C24.4849 19.7901 24.4514 20.0519 24.4514 20.3228C24.4514 20.5997 24.4821 20.8646 24.5436 21.1174C24.6106 21.3642 24.7084 21.5839 24.837 21.7765C24.9711 21.9631 25.1359 22.1136 25.3315 22.228C25.5271 22.3424 25.7591 22.3995 26.0273 22.3995C26.2955 22.3995 26.5275 22.3424 26.7231 22.228C26.9187 22.1136 27.0807 21.9631 27.2093 21.7765C27.3434 21.5839 27.4412 21.3642 27.5027 21.1174C27.5697 20.8646 27.6032 20.5997 27.6032 20.3228Z" fill="#657EFF"/>
<path d="M36 24.2957C36 24.5245 35.9385 24.699 35.8156 24.8194C35.6982 24.9398 35.5501 25 35.3713 25C35.1925 25 35.0416 24.9398 34.9186 24.8194C34.8013 24.699 34.7426 24.5245 34.7426 24.2957V23.5372H31.1883V24.2957C31.1883 24.5245 31.1269 24.699 31.0039 24.8194C30.8866 24.9398 30.7385 25 30.5596 25C30.3808 25 30.2299 24.9398 30.107 24.8194C29.9896 24.699 29.9309 24.5245 29.9309 24.2957V23.0497C29.9309 22.8209 29.9924 22.6464 30.1154 22.526C30.2383 22.4056 30.3864 22.3454 30.5596 22.3454C30.6211 22.3454 30.6854 22.24 30.7524 22.0293C30.8251 21.8126 30.8894 21.5478 30.9452 21.2348C31.0067 20.9157 31.057 20.5786 31.0961 20.2235C31.1353 19.8623 31.1548 19.5342 31.1548 19.2393V17.8126C31.1548 17.5839 31.2135 17.4093 31.3308 17.2889C31.4538 17.1685 31.6047 17.1084 31.7835 17.1084H34.6169C34.7957 17.1084 34.9438 17.1685 35.0611 17.2889C35.1841 17.4093 35.2456 17.5839 35.2456 17.8126V22.3454H35.3713C35.5501 22.3454 35.6982 22.4056 35.8156 22.526C35.9385 22.6464 36 22.8209 36 23.0497V24.2957ZM33.9882 18.3002H32.4122V19.149C32.4122 19.4199 32.3982 19.7088 32.3703 20.0158C32.3479 20.3168 32.3144 20.6147 32.2697 20.9097C32.225 21.2047 32.1719 21.4786 32.1104 21.7314C32.0546 21.9782 31.9931 22.1828 31.926 22.3454H33.9882V18.3002Z" fill="#657EFF"/>
</svg>
