<?xml version="1.0" encoding="UTF-8" standalone="no"?>
<svg
   xmlns:dc="http://purl.org/dc/elements/1.1/"
   xmlns:cc="http://creativecommons.org/ns#"
   xmlns:rdf="http://www.w3.org/1999/02/22-rdf-syntax-ns#"
   xmlns:svg="http://www.w3.org/2000/svg"
   xmlns="http://www.w3.org/2000/svg"
   xmlns:sodipodi="http://sodipodi.sourceforge.net/DTD/sodipodi-0.dtd"
   xmlns:inkscape="http://www.inkscape.org/namespaces/inkscape"
   width="40"
   height="40"
   viewBox="0 0 40 40"
   fill="none"
   version="1.1"
   id="svg9321"
   sodipodi:docname="help.svg"
   inkscape:version="0.92.3 (2405546, 2018-03-11)">
  <metadata
     id="metadata9327">
    <rdf:RDF>
      <cc:Work
         rdf:about="">
        <dc:format>image/svg+xml</dc:format>
        <dc:type
           rdf:resource="http://purl.org/dc/dcmitype/StillImage" />
      </cc:Work>
    </rdf:RDF>
  </metadata>
  <defs
     id="defs9325" />
  <sodipodi:namedview
     pagecolor="#ffffff"
     bordercolor="#666666"
     borderopacity="1"
     objecttolerance="10"
     gridtolerance="10"
     guidetolerance="10"
     inkscape:pageopacity="0"
     inkscape:pageshadow="2"
     inkscape:window-width="716"
     inkscape:window-height="480"
     id="namedview9323"
     showgrid="false"
     inkscape:zoom="5.9"
     inkscape:cx="20"
     inkscape:cy="20"
     inkscape:window-x="0"
     inkscape:window-y="0"
     inkscape:window-maximized="0"
     inkscape:current-layer="svg9321" />
  <path
     fill-rule="evenodd"
     clip-rule="evenodd"
     d="M10 20C10 14.48 14.48 10 20 10C25.52 10 30 14.48 30 20C30 25.52 25.52 30 20 30C14.48 30 10 25.52 10 20ZM21 24V26H19V24H21ZM20 28C15.5901 28 12 24.41 12 20C12 15.59 15.5901 12 20 12C24.4099 12 28 15.59 28 20C28 24.41 24.4099 28 20 28ZM16 18C16 15.79 17.79 14 20 14C22.21 14 24 15.79 24 18C24 19.2829 23.21 19.9733 22.4407 20.6455C21.7109 21.2833 21 21.9046 21 23H19C19 21.1787 19.9421 20.4566 20.7705 19.8217C21.4202 19.3236 22 18.8792 22 18C22 16.9 21.1001 16 20 16C18.8999 16 18 16.9 18 18H16Z"
     fill="#657EFF"
     id="path9319"
     style="fill:#ffffff;fill-opacity:1" />
</svg>
