<svg width="40" height="40" viewBox="0 0 40 40" fill="none" xmlns="http://www.w3.org/2000/svg">
<path fill-rule="evenodd" clip-rule="evenodd" d="M17 20C18.9301 20 20.5 18.43 20.5 16.5C20.5 14.57 18.9301 13 17 13C15.0699 13 13.5 14.57 13.5 16.5C13.5 18.43 15.0699 20 17 20ZM17 15C17.83 15 18.5 15.67 18.5 16.5C18.5 17.33 17.83 18 17 18C16.17 18 15.5 17.33 15.5 16.5C15.5 15.67 16.17 15 17 15ZM12.77 25H17.05C17.02 25.16 17 25.33 17 25.5V27H10V25.5C10 23.17 14.66 22 17 22C17.5601 22 18.25 22.07 18.98 22.2C18.27 22.68 17.6801 23.28 17.34 24.01C17.2849 24.01 17.2275 24.0075 17.1699 24.005C17.1125 24.0025 17.0549 24 17 24C15.47 24 13.76 24.5 12.77 25ZM24.5 22.5C22.66 22.5 19 23.51 19 25.5V27H30V25.5C30 23.51 26.34 22.5 24.5 22.5ZM27 18.5C27 19.44 26.47 20.25 25.71 20.68C25.35 20.88 24.9399 21 24.5 21C24.0601 21 23.65 20.88 23.29 20.68C22.53 20.25 22 19.44 22 18.5C22 17.12 23.12 16 24.5 16C25.88 16 27 17.12 27 18.5Z" fill="white"/>
</svg>
